<svg width="512" height="576" viewBox="0 0 512 576" fill="none" xmlns="http://www.w3.org/2000/svg">
<g clip-path="url(#clip0_81_25)">
<path d="M72 216.9C72 238.093 88.7543 255.282 109.774 255.978L52.7137 300.82C52.2131 301.213 51.7365 301.636 51.2863 302.086C44.0666 309.306 40 319.184 40 329.4C40 350.737 57.2634 368 78.6 368H91.8072L26.4039 429.877C25.9453 430.311 25.5127 430.772 25.1085 431.257C19.1809 438.37 16 447.306 16 456.5C16 478.337 33.6634 496 55.5 496H208V525C208 531.553 209.33 538.084 212.909 543.861C216.556 549.749 221.693 553.491 226.938 555.791C236.298 559.895 247.729 560 256 560C264.271 560 275.702 559.895 285.062 555.791C290.307 553.491 295.444 549.749 299.091 543.861C302.67 538.084 304 531.553 304 525V496H456.5C478.337 496 496 478.337 496 456.5C496 447.306 492.819 438.37 486.892 431.257C486.487 430.772 486.055 430.311 485.596 429.877L420.193 368H433.4C454.737 368 472 350.737 472 329.4C472 319.184 467.933 309.306 460.714 302.086C460.264 301.636 459.787 301.213 459.286 300.82L402.226 255.978C423.111 255.279 440 238.134 440 216.9C440 207.37 436.514 197.862 429.791 190.584L281.276 27.1776C274.715 19.8763 265.433 16 256 16C246.567 16 237.285 19.8763 230.724 27.1776L82.2097 190.584C75.4864 197.861 72 207.369 72 216.9Z" fill="url(#paint0_linear_81_25)" stroke="#2C3E50" stroke-width="32" stroke-miterlimit="16" stroke-linejoin="round"/>
</g>
<defs>
<linearGradient id="paint0_linear_81_25" x1="256" y1="32" x2="256" y2="544" gradientUnits="userSpaceOnUse">
<stop offset="0.109375" stop-color="#2ECC71"/>
<stop offset="0.536458" stop-color="#27AE75"/>
<stop offset="0.958333" stop-color="#3498DB"/>
</linearGradient>
<clipPath id="clip0_81_25">
<rect width="512" height="576" fill="white"/>
</clipPath>
</defs>
</svg>
