<svg width="3590" height="720" viewBox="0 0 3590 720" fill="none" xmlns="http://www.w3.org/2000/svg">
<g clip-path="url(#clip0_3_4)">
<path d="M90 271.125C90 297.616 110.943 319.102 137.217 319.973L65.8921 376.025C65.2664 376.517 64.6706 377.045 64.1079 377.608C55.0833 386.632 50 398.979 50 411.75C50 438.421 71.5793 460 98.25 460H114.759L33.0049 537.347C32.4316 537.889 31.8909 538.465 31.3856 539.071C23.9762 547.963 20 559.133 20 570.625C20 597.921 42.0793 620 69.375 620H260V656.25C260 664.441 261.663 672.605 266.136 679.826C270.695 687.186 277.116 691.864 283.672 694.739C295.372 699.869 309.661 700 320 700C330.339 700 344.628 699.869 356.328 694.739C362.884 691.864 369.305 687.186 373.864 679.826C378.337 672.605 380 664.441 380 656.25V620H570.625C597.921 620 620 597.921 620 570.625C620 559.133 616.024 547.963 608.614 539.071C608.109 538.465 607.568 537.889 606.995 537.347L525.241 460H541.75C568.421 460 590 438.421 590 411.75C590 398.979 584.917 386.632 575.892 377.608C575.329 377.045 574.734 376.517 574.108 376.025L502.782 319.972C528.889 319.099 550 297.668 550 271.125C550 259.212 545.642 247.327 537.238 238.23L351.593 33.9701C343.392 24.8447 331.79 20 320 20C308.209 20 296.607 24.8452 288.406 33.9716L102.761 238.23C94.3578 247.327 90 259.212 90 271.125Z" fill="url(#paint0_linear_3_4)" stroke="#2C3E50" stroke-width="40" stroke-miterlimit="16" stroke-linejoin="round"/>
</g>
<path d="M816.355 534.5C812.622 534.5 809.568 533.312 807.193 530.937C804.818 528.562 803.63 525.508 803.63 521.775V190.925C803.63 187.192 804.818 184.138 807.193 181.763C809.568 179.388 812.622 178.2 816.355 178.2H958.875C987.04 178.2 1011.47 182.611 1032.17 191.434C1053.21 199.917 1069.5 212.812 1081.04 230.118C1092.91 247.424 1098.85 269.311 1098.85 295.779C1098.85 321.908 1092.91 343.455 1081.04 360.422C1069.5 377.389 1053.21 389.944 1032.17 398.088C1011.47 406.232 987.04 410.304 958.875 410.304H898.304V521.775C898.304 525.508 896.947 528.562 894.232 530.937C891.857 533.312 888.803 534.5 885.07 534.5H816.355ZM896.777 340.062H956.33C970.921 340.062 982.459 336.329 990.942 328.864C999.765 321.399 1004.18 310.031 1004.18 294.761C1004.18 281.866 1000.44 271.008 992.978 262.185C985.513 253.362 973.297 248.951 956.33 248.951H896.777V340.062ZM1139.46 534.5C1135.73 534.5 1132.67 533.312 1130.3 530.937C1127.92 528.562 1126.73 525.508 1126.73 521.775V282.545C1126.73 278.812 1127.92 275.758 1130.3 273.383C1132.67 271.008 1135.73 269.82 1139.46 269.82H1199.52C1202.91 269.82 1205.8 271.008 1208.17 273.383C1210.89 275.758 1212.25 278.812 1212.25 282.545V521.775C1212.25 525.508 1210.89 528.562 1208.17 530.937C1205.8 533.312 1202.91 534.5 1199.52 534.5H1139.46ZM1138.95 231.645C1135.22 231.645 1132.16 230.457 1129.79 228.082C1127.41 225.707 1126.22 222.653 1126.22 218.92V173.619C1126.22 169.886 1127.41 166.832 1129.79 164.457C1132.16 161.742 1135.22 160.385 1138.95 160.385H1199.52C1203.25 160.385 1206.31 161.742 1208.68 164.457C1211.4 166.832 1212.75 169.886 1212.75 173.619V218.92C1212.75 222.653 1211.4 225.707 1208.68 228.082C1206.31 230.457 1203.25 231.645 1199.52 231.645H1138.95ZM1269.33 534.5C1265.6 534.5 1262.55 533.312 1260.17 530.937C1257.8 528.562 1256.61 525.508 1256.61 521.775V282.545C1256.61 278.812 1257.8 275.758 1260.17 273.383C1262.55 271.008 1265.6 269.82 1269.33 269.82H1327.87C1331.6 269.82 1334.65 271.008 1337.03 273.383C1339.41 275.758 1340.59 278.812 1340.59 282.545V301.887C1349.42 291.368 1360.95 282.545 1375.21 275.419C1389.46 268.293 1406.25 264.73 1425.6 264.73C1445.28 264.73 1462.58 269.141 1477.51 277.964C1492.78 286.787 1504.66 299.851 1513.14 317.157C1521.97 334.124 1526.38 354.993 1526.38 379.764V521.775C1526.38 525.508 1525.02 528.562 1522.31 530.937C1519.93 533.312 1517.05 534.5 1513.65 534.5H1449.52C1446.13 534.5 1443.07 533.312 1440.36 530.937C1437.98 528.562 1436.79 525.508 1436.79 521.775V382.818C1436.79 366.869 1432.89 354.653 1425.09 346.17C1417.62 337.347 1406.42 332.936 1391.49 332.936C1377.58 332.936 1366.38 337.347 1357.9 346.17C1349.76 354.653 1345.68 366.869 1345.68 382.818V521.775C1345.68 525.508 1344.33 528.562 1341.61 530.937C1339.24 533.312 1336.35 534.5 1332.96 534.5H1269.33ZM1690.07 539.59C1650.03 539.59 1618.13 528.731 1594.38 507.014C1570.63 485.297 1558.24 453.06 1557.22 410.304C1557.22 407.929 1557.22 404.875 1557.22 401.142C1557.22 397.409 1557.22 394.525 1557.22 392.489C1558.24 365.682 1564.18 342.777 1575.04 323.774C1586.24 304.432 1601.51 289.841 1620.85 280C1640.53 269.82 1663.44 264.73 1689.56 264.73C1719.43 264.73 1744.03 270.668 1763.37 282.545C1783.05 294.422 1797.81 310.54 1807.65 330.9C1817.49 351.26 1822.41 374.504 1822.41 400.633V412.849C1822.41 416.582 1821.06 419.636 1818.34 422.011C1815.97 424.386 1813.08 425.574 1809.69 425.574H1646.81C1646.81 425.913 1646.81 426.422 1646.81 427.101C1646.81 427.78 1646.81 428.458 1646.81 429.137C1647.15 438.978 1648.84 447.97 1651.9 456.114C1654.95 464.258 1659.7 470.705 1666.15 475.456C1672.6 480.207 1680.4 482.582 1689.56 482.582C1696.35 482.582 1701.95 481.564 1706.36 479.528C1711.11 477.153 1715.01 474.608 1718.07 471.893C1721.12 468.839 1723.5 466.294 1725.19 464.258C1728.25 460.865 1730.62 458.829 1732.32 458.15C1734.36 457.132 1737.41 456.623 1741.48 456.623H1804.6C1807.99 456.623 1810.71 457.641 1812.74 459.677C1815.12 461.374 1816.14 463.919 1815.8 467.312C1815.46 473.081 1812.57 480.037 1807.14 488.181C1801.71 496.325 1793.74 504.469 1783.22 512.613C1773.04 520.418 1760.15 526.865 1744.54 531.955C1728.93 537.045 1710.77 539.59 1690.07 539.59ZM1646.81 375.183H1732.83V374.165C1732.83 363.306 1731.13 353.805 1727.74 345.661C1724.69 337.517 1719.77 331.239 1712.98 326.828C1706.53 322.417 1698.73 320.211 1689.56 320.211C1680.4 320.211 1672.6 322.417 1666.15 326.828C1660.04 331.239 1655.29 337.517 1651.9 345.661C1648.51 353.805 1646.81 363.306 1646.81 374.165V375.183Z" fill="#181C20"/>
<path d="M1966.28 534.5C1962.54 534.5 1959.49 533.312 1957.12 530.937C1954.74 528.562 1953.55 525.508 1953.55 521.775V190.925C1953.55 187.192 1954.74 184.138 1957.12 181.763C1959.49 179.388 1962.54 178.2 1966.28 178.2H2203.98C2207.71 178.2 2210.77 179.388 2213.14 181.763C2215.52 184.138 2216.71 187.192 2216.71 190.925V238.771C2216.71 242.504 2215.52 245.558 2213.14 247.933C2210.77 250.308 2207.71 251.496 2203.98 251.496H2041.61V320.211H2192.78C2196.52 320.211 2199.57 321.568 2201.94 324.283C2204.32 326.658 2205.51 329.712 2205.51 333.445V377.728C2205.51 381.121 2204.32 384.175 2201.94 386.89C2199.57 389.265 2196.52 390.453 2192.78 390.453H2041.61V461.204H2208.05C2211.79 461.204 2214.84 462.392 2217.21 464.767C2219.59 467.142 2220.78 470.196 2220.78 473.929V521.775C2220.78 525.508 2219.59 528.562 2217.21 530.937C2214.84 533.312 2211.79 534.5 2208.05 534.5H1966.28ZM2270.49 534.5C2266.76 534.5 2263.71 533.312 2261.33 530.937C2258.96 528.562 2257.77 525.508 2257.77 521.775V282.545C2257.77 278.812 2258.96 275.758 2261.33 273.383C2263.71 271.008 2266.76 269.82 2270.49 269.82H2329.03C2332.76 269.82 2335.81 271.008 2338.19 273.383C2340.56 275.758 2341.75 278.812 2341.75 282.545V301.887C2350.58 291.368 2362.11 282.545 2376.36 275.419C2390.62 268.293 2407.41 264.73 2426.76 264.73C2446.44 264.73 2463.74 269.141 2478.67 277.964C2493.94 286.787 2505.82 299.851 2514.3 317.157C2523.13 334.124 2527.54 354.993 2527.54 379.764V521.775C2527.54 525.508 2526.18 528.562 2523.47 530.937C2521.09 533.312 2518.21 534.5 2514.81 534.5H2450.68C2447.29 534.5 2444.23 533.312 2441.52 530.937C2439.14 528.562 2437.95 525.508 2437.95 521.775V382.818C2437.95 366.869 2434.05 354.653 2426.25 346.17C2418.78 337.347 2407.58 332.936 2392.65 332.936C2378.74 332.936 2367.54 337.347 2359.06 346.17C2350.91 354.653 2346.84 366.869 2346.84 382.818V521.775C2346.84 525.508 2345.49 528.562 2342.77 530.937C2340.4 533.312 2337.51 534.5 2334.12 534.5H2270.49ZM2698.87 646.48C2672.74 646.48 2651.02 643.087 2633.72 636.3C2616.75 629.513 2603.18 621.369 2593 611.868C2583.15 602.367 2576.03 592.865 2571.62 583.364C2567.21 574.202 2564.83 566.906 2564.49 561.477C2564.15 557.744 2565.34 554.69 2568.05 552.315C2570.77 549.94 2573.99 548.752 2577.73 548.752H2642.37C2645.42 548.752 2647.97 549.431 2650 550.788C2652.38 552.485 2654.25 555.199 2655.6 558.932C2657.3 562.665 2659.5 566.567 2662.22 570.639C2665.27 574.711 2669.35 577.935 2674.44 580.31C2679.86 583.025 2687.16 584.382 2696.32 584.382C2706.5 584.382 2714.99 582.685 2721.77 579.292C2728.56 576.238 2733.65 570.978 2737.04 563.513C2740.44 556.387 2742.13 546.716 2742.13 534.5V500.397C2734.33 508.88 2724.32 515.837 2712.1 521.266C2699.89 526.356 2685.12 528.901 2667.82 528.901C2650.51 528.901 2635.24 526.356 2622.01 521.266C2608.77 516.176 2597.75 508.541 2588.92 498.361C2580.1 488.181 2573.14 475.795 2568.05 461.204C2563.3 446.613 2560.42 429.816 2559.4 410.813C2559.06 401.99 2559.06 393.168 2559.4 384.345C2560.42 366.021 2563.3 349.563 2568.05 334.972C2572.81 320.381 2579.59 307.825 2588.41 297.306C2597.58 286.787 2608.77 278.812 2622.01 273.383C2635.24 267.614 2650.51 264.73 2667.82 264.73C2686.14 264.73 2701.75 268.293 2714.65 275.419C2727.88 282.206 2738.74 290.859 2747.22 301.378V282.545C2747.22 279.152 2748.41 276.267 2750.79 273.892C2753.16 271.177 2756.21 269.82 2759.95 269.82H2818.48C2822.22 269.82 2825.27 271.177 2827.64 273.892C2830.36 276.267 2831.72 279.152 2831.72 282.545V527.374C2831.72 553.163 2826.46 574.881 2815.94 592.526C2805.42 610.171 2790.32 623.575 2770.64 632.737C2750.96 641.899 2727.03 646.48 2698.87 646.48ZM2695.3 462.731C2706.16 462.731 2714.99 460.356 2721.77 455.605C2728.56 450.854 2733.48 444.746 2736.53 437.281C2739.93 429.816 2741.79 421.841 2742.13 413.358C2742.47 409.625 2742.64 404.366 2742.64 397.579C2742.64 390.792 2742.47 385.702 2742.13 382.309C2741.79 373.486 2739.93 365.342 2736.53 357.877C2733.48 350.412 2728.56 344.473 2721.77 340.062C2714.99 335.311 2706.16 332.936 2695.3 332.936C2684.11 332.936 2675.11 335.311 2668.33 340.062C2661.88 344.813 2657.13 351.26 2654.08 359.404C2651.36 367.548 2649.66 376.54 2648.99 386.381C2648.65 393.846 2648.65 401.481 2648.99 409.286C2649.66 419.127 2651.36 428.119 2654.08 436.263C2657.13 444.407 2661.88 450.854 2668.33 455.605C2675.11 460.356 2684.11 462.731 2695.3 462.731ZM2889.13 534.5C2885.39 534.5 2882.34 533.312 2879.96 530.937C2877.59 528.562 2876.4 525.508 2876.4 521.775V282.545C2876.4 278.812 2877.59 275.758 2879.96 273.383C2882.34 271.008 2885.39 269.82 2889.13 269.82H2949.19C2952.58 269.82 2955.47 271.008 2957.84 273.383C2960.56 275.758 2961.91 278.812 2961.91 282.545V521.775C2961.91 525.508 2960.56 528.562 2957.84 530.937C2955.47 533.312 2952.58 534.5 2949.19 534.5H2889.13ZM2888.62 231.645C2884.88 231.645 2881.83 230.457 2879.46 228.082C2877.08 225.707 2875.89 222.653 2875.89 218.92V173.619C2875.89 169.886 2877.08 166.832 2879.46 164.457C2881.83 161.742 2884.88 160.385 2888.62 160.385H2949.19C2952.92 160.385 2955.98 161.742 2958.35 164.457C2961.07 166.832 2962.42 169.886 2962.42 173.619V218.92C2962.42 222.653 2961.07 225.707 2958.35 228.082C2955.98 230.457 2952.92 231.645 2949.19 231.645H2888.62ZM3019 534.5C3015.27 534.5 3012.21 533.312 3009.84 530.937C3007.46 528.562 3006.28 525.508 3006.28 521.775V282.545C3006.28 278.812 3007.46 275.758 3009.84 273.383C3012.21 271.008 3015.27 269.82 3019 269.82H3077.54C3081.27 269.82 3084.32 271.008 3086.7 273.383C3089.07 275.758 3090.26 278.812 3090.26 282.545V301.887C3099.08 291.368 3110.62 282.545 3124.87 275.419C3139.12 268.293 3155.92 264.73 3175.26 264.73C3194.95 264.73 3212.25 269.141 3227.18 277.964C3242.45 286.787 3254.33 299.851 3262.81 317.157C3271.63 334.124 3276.05 354.993 3276.05 379.764V521.775C3276.05 525.508 3274.69 528.562 3271.97 530.937C3269.6 533.312 3266.71 534.5 3263.32 534.5H3199.19C3195.79 534.5 3192.74 533.312 3190.02 530.937C3187.65 528.562 3186.46 525.508 3186.46 521.775V382.818C3186.46 366.869 3182.56 354.653 3174.75 346.17C3167.29 337.347 3156.09 332.936 3141.16 332.936C3127.25 332.936 3116.05 337.347 3107.57 346.17C3099.42 354.653 3095.35 366.869 3095.35 382.818V521.775C3095.35 525.508 3093.99 528.562 3091.28 530.937C3088.9 533.312 3086.02 534.5 3082.63 534.5H3019ZM3439.74 539.59C3399.7 539.59 3367.8 528.731 3344.05 507.014C3320.3 485.297 3307.91 453.06 3306.89 410.304C3306.89 407.929 3306.89 404.875 3306.89 401.142C3306.89 397.409 3306.89 394.525 3306.89 392.489C3307.91 365.682 3313.85 342.777 3324.71 323.774C3335.91 304.432 3351.18 289.841 3370.52 280C3390.2 269.82 3413.1 264.73 3439.23 264.73C3469.09 264.73 3493.7 270.668 3513.04 282.545C3532.72 294.422 3547.48 310.54 3557.32 330.9C3567.16 351.26 3572.08 374.504 3572.08 400.633V412.849C3572.08 416.582 3570.72 419.636 3568.01 422.011C3565.63 424.386 3562.75 425.574 3559.36 425.574H3396.48C3396.48 425.913 3396.48 426.422 3396.48 427.101C3396.48 427.78 3396.48 428.458 3396.48 429.137C3396.82 438.978 3398.51 447.97 3401.57 456.114C3404.62 464.258 3409.37 470.705 3415.82 475.456C3422.27 480.207 3430.07 482.582 3439.23 482.582C3446.02 482.582 3451.62 481.564 3456.03 479.528C3460.78 477.153 3464.68 474.608 3467.74 471.893C3470.79 468.839 3473.17 466.294 3474.86 464.258C3477.92 460.865 3480.29 458.829 3481.99 458.15C3484.02 457.132 3487.08 456.623 3491.15 456.623H3554.27C3557.66 456.623 3560.37 457.641 3562.41 459.677C3564.79 461.374 3565.8 463.919 3565.46 467.312C3565.12 473.081 3562.24 480.037 3556.81 488.181C3551.38 496.325 3543.41 504.469 3532.89 512.613C3522.71 520.418 3509.81 526.865 3494.2 531.955C3478.59 537.045 3460.44 539.59 3439.74 539.59ZM3396.48 375.183H3482.5V374.165C3482.5 363.306 3480.8 353.805 3477.41 345.661C3474.35 337.517 3469.43 331.239 3462.65 326.828C3456.2 322.417 3448.39 320.211 3439.23 320.211C3430.07 320.211 3422.27 322.417 3415.82 326.828C3409.71 331.239 3404.96 337.517 3401.57 345.661C3398.17 353.805 3396.48 363.306 3396.48 374.165V375.183Z" fill="url(#paint1_linear_3_4)"/>
<defs>
<linearGradient id="paint0_linear_3_4" x1="320" y1="40" x2="320" y2="680" gradientUnits="userSpaceOnUse">
<stop offset="0.109375" stop-color="#2ECC71"/>
<stop offset="0.536458" stop-color="#27AE75"/>
<stop offset="0.958333" stop-color="#3498DB"/>
</linearGradient>
<linearGradient id="paint1_linear_3_4" x1="2179" y1="58.5" x2="2179" y2="661.5" gradientUnits="userSpaceOnUse">
<stop offset="0.109375" stop-color="#2ECC71"/>
<stop offset="0.536458" stop-color="#27AE75"/>
<stop offset="0.958333" stop-color="#3498DB"/>
</linearGradient>
<clipPath id="clip0_3_4">
<rect width="640" height="720" fill="white"/>
</clipPath>
</defs>
</svg>
